<svg width="200" height="100" viewBox="0 0 694 917" fill="none" xmlns="http://www.w3.org/2000/svg">
<g filter="url(#filter0_d_396_2982)">
<path d="M319.273 813C231.273 813 141.273 790 100.273 765L125.273 639C155.273 657 229.273 673 283.273 673C349.273 673 398.273 648 398.273 583C398.273 526 351.273 512 284.273 509L213.273 506V385L274.273 383C340.273 378 392.273 354 392.273 305C392.273 255 346.273 235 281.273 235C237.273 235 187.273 243 149.273 256L131.273 126C178.273 105 257.273 96 336.273 96C472.273 96 573.273 153 573.273 270C573.273 351 530.273 408 456.273 435C541.273 450 593.273 501 593.273 601C593.273 738 485.273 813 319.273 813Z" fill="#78F7E7" fill-opacity="0.7" shape-rendering="crispEdges"/>
<path d="M100.273 765L80.6559 761.108C79.0233 769.336 82.699 777.709 89.8613 782.076L100.273 765ZM125.273 639L135.563 621.85C129.982 618.501 123.119 618.078 117.168 620.716C111.218 623.354 106.923 628.723 105.656 635.108L125.273 639ZM284.273 509L285.168 489.02C285.151 489.019 285.135 489.018 285.118 489.018L284.273 509ZM213.273 506H193.273C193.273 516.717 201.721 525.53 212.429 525.982L213.273 506ZM213.273 385L212.618 365.011C201.833 365.364 193.273 374.209 193.273 385H213.273ZM274.273 383L274.929 402.989C275.214 402.98 275.499 402.964 275.784 402.943L274.273 383ZM149.273 256L129.462 258.743C130.282 264.66 133.703 269.901 138.789 273.032C143.876 276.163 150.096 276.857 155.747 274.923L149.273 256ZM131.273 126L123.115 107.74C114.991 111.37 110.242 119.929 111.462 128.743L131.273 126ZM456.273 435L449.418 416.212C440.918 419.313 435.559 427.736 436.35 436.75C437.142 445.764 443.887 453.123 452.798 454.696L456.273 435ZM319.273 793C276.918 793 233.923 787.453 196.627 778.883C158.995 770.236 128.585 758.838 110.686 747.924L89.8613 782.076C112.962 796.162 148.052 808.764 187.67 817.867C227.624 827.047 273.629 833 319.273 833V793ZM119.891 768.892L144.891 642.892L105.656 635.108L80.6559 761.108L119.891 768.892ZM114.984 656.15C132.883 666.89 161.514 675.934 191.06 682.301C221.11 688.778 254.552 693 283.273 693V653C257.995 653 227.436 649.222 199.487 643.199C171.033 637.066 147.664 629.11 135.563 621.85L114.984 656.15ZM283.273 693C318.27 693 351.75 686.461 377.006 668.75C403.426 650.224 418.273 621.277 418.273 583H378.273C378.273 609.723 368.621 625.776 354.041 636C338.297 647.039 314.277 653 283.273 653V693ZM418.273 583C418.273 565.96 414.74 550.769 407.171 537.757C399.577 524.702 388.673 515.132 375.991 508.2C351.526 494.829 318.971 490.534 285.168 489.02L283.379 528.98C316.575 530.466 341.02 534.671 356.806 543.3C364.249 547.368 369.282 552.173 372.595 557.868C375.932 563.606 378.273 571.54 378.273 583H418.273ZM285.118 489.018L214.118 486.018L212.429 525.982L283.429 528.982L285.118 489.018ZM233.273 506V385H193.273V506H233.273ZM213.929 404.989L274.929 402.989L273.618 363.011L212.618 365.011L213.929 404.989ZM275.784 402.943C310.341 400.325 343.323 392.644 368.313 377.65C394.084 362.187 412.273 338.117 412.273 305H372.273C372.273 320.883 364.463 333.313 347.734 343.35C330.224 353.856 304.206 360.675 272.763 363.057L275.784 402.943ZM412.273 305C412.273 272.407 396.56 248.496 371.095 233.899C347.071 220.127 315.241 215 281.273 215V255C312.306 255 335.976 259.873 351.202 268.601C364.987 276.504 372.273 287.593 372.273 305H412.273ZM281.273 215C235.259 215 183.054 223.306 142.8 237.077L155.747 274.923C191.493 262.694 239.288 255 281.273 255V215ZM169.084 253.257L151.084 123.257L111.462 128.743L129.462 258.743L169.084 253.257ZM139.432 144.26C182.35 125.084 257.733 116 336.273 116V76C256.814 76 174.197 84.9159 123.115 107.74L139.432 144.26ZM336.273 116C401.885 116 456.699 129.81 494.489 155.637C531.365 180.84 553.273 218.202 553.273 270H593.273C593.273 204.798 564.682 155.16 517.058 122.613C470.348 90.6897 406.662 76 336.273 76V116ZM553.273 270C553.273 306.839 543.548 337.122 526.298 361.056C509.01 385.044 483.295 403.851 449.418 416.212L463.129 453.788C503.251 439.149 536.037 415.956 558.749 384.444C581.499 352.877 593.273 314.161 593.273 270H553.273ZM452.798 454.696C492.25 461.658 521.793 476.557 541.567 499.261C561.248 521.857 573.273 554.505 573.273 601H613.273C613.273 547.495 599.299 504.643 571.73 472.989C544.254 441.443 505.297 423.342 459.749 415.304L452.798 454.696ZM573.273 601C573.273 663.595 548.932 710.513 506.51 742.385C463.352 774.81 399.603 793 319.273 793V833C404.944 833 478.195 813.69 530.537 774.365C583.615 734.487 613.273 675.405 613.273 601H573.273Z" fill="white"/>
</g>
<defs>
<filter id="filter0_d_396_2982" x="0.273438" y="0" width="693" height="917" filterUnits="userSpaceOnUse" color-interpolation-filters="sRGB">
<feFlood flood-opacity="0" result="BackgroundImageFix"/>
<feColorMatrix in="SourceAlpha" type="matrix" values="0 0 0 0 0 0 0 0 0 0 0 0 0 0 0 0 0 0 127 0" result="hardAlpha"/>
<feOffset dy="4"/>
<feGaussianBlur stdDeviation="50"/>
<feComposite in2="hardAlpha" operator="out"/>
<feColorMatrix type="matrix" values="0 0 0 0 0 0 0 0 0 0 0 0 0 0 0 0 0 0 0.5 0"/>
<feBlend mode="normal" in2="BackgroundImageFix" result="effect1_dropShadow_396_2982"/>
<feBlend mode="normal" in="SourceGraphic" in2="effect1_dropShadow_396_2982" result="shape"/>
</filter>
</defs>
</svg>
