<svg width="16" height="20" viewBox="0 0 46 53" fill="none" xmlns="http://www.w3.org/2000/svg">
<path fill-rule="evenodd" clip-rule="evenodd" d="M23 0L42.618 6.48587C44.6367 7.15326 46 9.0404 46 11.1673V21.0518C46 31.5801 40.6966 41.3996 31.8938 47.17L23 53L14.1062 47.17C5.30343 41.3996 0 31.5801 0 21.0518V11.1673C0 9.0404 1.36335 7.15326 3.38203 6.48587L23 0ZM23 3.4618L4.41306 9.6068C3.74016 9.82926 3.28571 10.4583 3.28571 11.1673V21.0518C3.28571 30.4719 8.03089 39.2577 15.9071 44.4207L23 49.0702L30.0929 44.4207C37.9691 39.2577 42.7143 30.4719 42.7143 21.0518V11.1673C42.7143 10.4583 42.2598 9.82926 41.5869 9.6068L23 3.4618Z" fill="#C8C8C8"/>
<path d="M4.41306 9.6068L23 3.4618L41.5869 9.6068C42.2598 9.82926 42.7143 10.4583 42.7143 11.1673V21.0518C42.7143 30.4719 37.9691 39.2577 30.0929 44.4207L23 49.0702L15.9071 44.4207C8.03089 39.2577 3.28571 30.4719 3.28571 21.0518V11.1673C3.28571 10.4583 3.74016 9.82926 4.41306 9.6068Z" fill="#C8C8C8"/>
</svg>
