<svg width="78" height="78" viewBox="0 0 78 78" fill="none" xmlns="http://www.w3.org/2000/svg">
<path fill-rule="evenodd" clip-rule="evenodd" d="M46.875 2.59375C46.875 1.16126 48.0363 0 49.4688 0H78V28.5312C78 29.9637 76.8387 31.125 75.4062 31.125C73.9738 31.125 72.8125 29.9637 72.8125 28.5312V8.85562L35.7403 45.9278C34.7274 46.9407 33.0851 46.9407 32.0722 45.9278C31.0593 44.9149 31.0593 43.2726 32.0722 42.2597L69.1444 5.1875H49.4688C48.0363 5.1875 46.875 4.02624 46.875 2.59375ZM0.1875 22.0469C0.1875 15.6007 5.41318 10.375 11.8594 10.375H33.9062C35.3387 10.375 36.5 11.5363 36.5 12.9688C36.5 14.4012 35.3387 15.5625 33.9062 15.5625H11.8594C8.27815 15.5625 5.375 18.4657 5.375 22.0469V66.1406C5.375 69.7218 8.27815 72.625 11.8594 72.625H55.9531C59.5343 72.625 62.4375 69.7218 62.4375 66.1406V44.0938C62.4375 42.6613 63.5988 41.5 65.0312 41.5C66.4637 41.5 67.625 42.6613 67.625 44.0938V66.1406C67.625 72.5868 62.3993 77.8125 55.9531 77.8125H11.8594C5.41318 77.8125 0.1875 72.5868 0.1875 66.1406V22.0469Z" fill="#00A3FF"/>
</svg>
