<svg width="25" height="25" viewBox="0 0 134 134" fill="none" xmlns="http://www.w3.org/2000/svg">
<path d="M67 20.9375C41.5609 20.9375 20.9375 41.5609 20.9375 67C20.9375 92.4391 41.5609 113.062 67 113.062C92.4391 113.062 113.062 92.4391 113.062 67C113.062 41.5609 92.4391 20.9375 67 20.9375ZM67 29.3125C87.814 29.3125 104.688 46.186 104.688 67C104.688 87.814 87.814 104.688 67 104.688C46.186 104.688 29.3125 87.814 29.3125 67C29.3125 46.186 46.186 29.3125 67 29.3125ZM67 43.9688C63.5307 43.9688 60.7188 46.7807 60.7188 50.25C60.7188 53.7193 63.5307 56.5312 67 56.5312C70.4693 56.5312 73.2812 53.7193 73.2812 50.25C73.2812 46.7807 70.4693 43.9688 67 43.9688ZM67 62.8125C64.6864 62.8125 62.8125 64.6885 62.8125 67V87.9375C62.8125 90.249 64.6864 92.125 67 92.125C69.3136 92.125 71.1875 90.249 71.1875 87.9375V67C71.1875 64.6885 69.3136 62.8125 67 62.8125Z" fill="#DFDFDF"/>
</svg>
