<svg width="200" height="100" viewBox="0 0 671 906" fill="none" xmlns="http://www.w3.org/2000/svg">
<g filter="url(#filter0_d_396_3077)">
<path d="M100.457 802V696L191.457 597C285.457 496 379.457 394 379.457 323C379.457 249 330.457 233 253.457 233C219.457 233 160.457 249 123.457 265L108.457 136C161.457 109 232.457 96 315.457 96C488.457 96 570.457 164 570.457 295C570.457 425 418.457 575 379.457 617L333.457 666H562.457V802H100.457Z" fill="#D095FF" fill-opacity="0.7" shape-rendering="crispEdges"/>
<path d="M100.457 802H80.457C80.457 813.046 89.4113 822 100.457 822V802ZM100.457 696L85.7325 682.465C82.3398 686.156 80.457 690.987 80.457 696H100.457ZM191.457 597L176.817 583.374C176.789 583.405 176.76 583.435 176.732 583.465L191.457 597ZM123.457 265L103.591 267.31C104.321 273.593 107.981 279.16 113.46 282.322C118.938 285.484 125.589 285.868 131.395 283.357L123.457 265ZM108.457 136L99.3785 118.179C91.9281 121.975 87.6251 130.004 88.5909 138.31L108.457 136ZM379.457 617L394.039 630.689C394.063 630.662 394.088 630.636 394.113 630.609L379.457 617ZM333.457 666L318.876 652.311C313.418 658.125 311.935 666.626 315.103 673.944C318.27 681.263 325.483 686 333.457 686V666ZM562.457 666H582.457C582.457 654.954 573.503 646 562.457 646V666ZM562.457 802V822C573.503 822 582.457 813.046 582.457 802H562.457ZM120.457 802V696H80.457V802H120.457ZM115.182 709.535L206.182 610.535L176.732 583.465L85.7325 682.465L115.182 709.535ZM206.097 610.626C252.926 560.31 300.7 508.759 336.707 460.75C354.743 436.702 370.238 413.011 381.284 390.315C392.258 367.766 399.457 344.958 399.457 323H359.457C359.457 336.542 354.906 353.109 345.318 372.81C335.801 392.364 321.921 413.798 304.707 436.75C270.214 482.741 223.988 532.69 176.817 583.374L206.097 610.626ZM399.457 323C399.457 280.938 385.038 250.918 355.694 233.143C328.727 216.809 292.286 213 253.457 213V253C291.628 253 318.187 257.191 334.97 267.357C349.376 276.082 359.457 291.062 359.457 323H399.457ZM253.457 213C233.989 213 208.855 217.47 184.659 223.615C160.195 229.828 135.161 238.149 115.519 246.643L131.395 283.357C148.753 275.851 171.719 268.172 194.505 262.385C217.559 256.53 238.925 253 253.457 253V213ZM143.323 262.69L128.323 133.69L88.5909 138.31L103.591 267.31L143.323 262.69ZM117.536 153.821C166.684 128.783 234.192 116 315.457 116V76C230.722 76 156.23 89.2172 99.3785 118.179L117.536 153.821ZM315.457 116C399.887 116 458.349 132.687 495.412 162.051C531.574 190.702 550.457 233.934 550.457 295H590.457C590.457 225.066 568.34 168.798 520.252 130.699C473.065 93.3134 404.027 76 315.457 76V116ZM550.457 295C550.457 353.24 515.886 418.782 473.403 477.243C431.43 535.001 384.811 581.842 364.801 603.391L394.113 630.609C413.103 610.158 461.984 560.999 505.761 500.757C549.028 441.218 590.457 366.76 590.457 295H550.457ZM364.876 603.311L318.876 652.311L348.039 679.689L394.039 630.689L364.876 603.311ZM333.457 686H562.457V646H333.457V686ZM542.457 666V802H582.457V666H542.457ZM562.457 782H100.457V822H562.457V782Z" fill="white"/>
</g>
<defs>
<filter id="filter0_d_396_3077" x="0.460938" y="0" width="670" height="906" filterUnits="userSpaceOnUse" color-interpolation-filters="sRGB">
<feFlood flood-opacity="0" result="BackgroundImageFix"/>
<feColorMatrix in="SourceAlpha" type="matrix" values="0 0 0 0 0 0 0 0 0 0 0 0 0 0 0 0 0 0 127 0" result="hardAlpha"/>
<feOffset dy="4"/>
<feGaussianBlur stdDeviation="50"/>
<feComposite in2="hardAlpha" operator="out"/>
<feColorMatrix type="matrix" values="0 0 0 0 0 0 0 0 0 0 0 0 0 0 0 0 0 0 0.5 0"/>
<feBlend mode="normal" in2="BackgroundImageFix" result="effect1_dropShadow_396_3077"/>
<feBlend mode="normal" in="SourceGraphic" in2="effect1_dropShadow_396_3077" result="shape"/>
</filter>
</defs>
</svg>
