<svg width="200" height="100" viewBox="0 0 1098 537" fill="none" xmlns="http://www.w3.org/2000/svg">
<g filter="url(#filter0_d_396_2903)">
<path d="M229.988 354.8C275.088 354.8 298.738 320.15 298.738 250.3V229.95C298.738 152.95 277.288 122.15 228.888 122.15C183.238 122.15 159.588 155.7 159.588 225.55V245.35C159.588 325.1 183.238 354.8 229.988 354.8ZM408.188 237.1C408.188 323.45 369.688 369.1 314.688 386.7L415.338 406.5L397.738 482.95L192.588 428.5C110.088 407.05 50.6879 366.35 50.6879 244.25V232.15C50.6879 100.7 135.938 46.25 230.538 46.25C329.538 46.25 408.188 100.15 408.188 227.75V237.1ZM583.649 434.15C515.749 434.15 481.449 404.75 481.449 346.3V195.45H547.599V343.85C547.599 373.95 559.849 386.2 585.749 386.2C611.649 386.2 622.499 373.95 622.499 343.5V195.45H681.299V345.95C681.299 404.4 650.499 434.15 583.649 434.15ZM746.907 430.3V195.1H813.057V430.3H746.907ZM870.892 430.3V385.15L972.742 243.4V242.35H876.842V195.1H1047.99V239.9L945.792 382V383.05H1047.64V430.3H870.892Z" fill="#D095FF"/>
<path d="M314.688 386.7L308.592 367.652C299.901 370.433 294.195 378.744 294.721 387.854C295.248 396.964 301.874 404.562 310.827 406.324L314.688 386.7ZM415.338 406.5L434.828 410.987C436.043 405.71 435.066 400.165 432.12 395.621C429.174 391.077 424.512 387.921 419.198 386.876L415.338 406.5ZM397.738 482.95L392.607 502.281C397.845 503.671 403.423 502.876 408.064 500.078C412.705 497.28 416.012 492.718 417.228 487.437L397.738 482.95ZM192.588 428.5L197.719 409.169C197.686 409.161 197.653 409.152 197.621 409.144L192.588 428.5ZM229.988 374.8C258.525 374.8 282.303 363.351 297.937 339.807C312.654 317.644 318.738 286.878 318.738 250.3H278.738C278.738 283.572 272.997 305.056 264.614 317.68C257.148 328.924 246.551 334.8 229.988 334.8V374.8ZM318.738 250.3V229.95H278.738V250.3H318.738ZM318.738 229.95C318.738 190.495 313.421 158.574 298.665 136.173C282.612 111.804 257.904 102.15 228.888 102.15V142.15C248.272 142.15 258.489 147.896 265.261 158.177C273.329 170.426 278.738 192.405 278.738 229.95H318.738ZM228.888 102.15C200.404 102.15 176.425 113.066 160.571 136.425C145.662 158.391 139.588 188.997 139.588 225.55H179.588C179.588 192.253 185.339 171.159 193.668 158.888C201.051 148.009 211.722 142.15 228.888 142.15V102.15ZM139.588 225.55V245.35H179.588V225.55H139.588ZM139.588 245.35C139.588 286.354 145.501 318.714 160.687 341.181C177.094 365.456 201.829 374.8 229.988 374.8V334.8C211.397 334.8 200.932 329.294 193.827 318.782C185.499 306.461 179.588 284.096 179.588 245.35H139.588ZM388.188 237.1C388.188 277.337 379.232 306.159 365.494 326.48C351.853 346.657 332.45 360.017 308.592 367.652L320.783 405.748C351.926 395.783 379.273 377.518 398.632 348.883C417.893 320.391 428.188 283.213 428.188 237.1H388.188ZM310.827 406.324L411.477 426.124L419.198 386.876L318.548 367.076L310.827 406.324ZM395.848 402.013L378.248 478.463L417.228 487.437L434.828 410.987L395.848 402.013ZM402.869 463.619L197.719 409.169L187.457 447.831L392.607 502.281L402.869 463.619ZM197.621 409.144C157.851 398.804 126.897 384.577 105.604 360.782C84.6749 337.394 70.6879 302.022 70.6879 244.25H30.6879C30.6879 308.578 46.4009 354.606 75.7965 387.456C104.828 419.898 144.825 436.746 187.555 447.856L197.621 409.144ZM70.6879 244.25V232.15H30.6879V244.25H70.6879ZM70.6879 232.15C70.6879 170.996 90.3497 130.31 118.571 104.723C147.153 78.8103 186.877 66.25 230.538 66.25V26.25C179.599 26.25 129.398 40.9147 91.7043 75.0894C53.6511 109.59 30.6879 161.854 30.6879 232.15H70.6879ZM230.538 66.25C276.611 66.25 315.632 78.7814 342.959 103.88C369.978 128.696 388.188 168.207 388.188 227.75H428.188C428.188 159.693 407.073 108.454 370.017 74.42C333.269 40.6685 283.465 26.25 230.538 26.25V66.25ZM388.188 227.75V237.1H428.188V227.75H388.188ZM481.449 195.45V175.45C470.403 175.45 461.449 184.404 461.449 195.45H481.449ZM547.599 195.45H567.599C567.599 184.404 558.645 175.45 547.599 175.45V195.45ZM622.499 195.45V175.45C611.453 175.45 602.499 184.404 602.499 195.45H622.499ZM681.299 195.45H701.299C701.299 184.404 692.345 175.45 681.299 175.45V195.45ZM583.649 414.15C552.137 414.15 532.103 407.267 520.118 396.972C508.708 387.171 501.449 371.536 501.449 346.3H461.449C461.449 379.514 471.34 407.804 494.055 427.315C516.195 446.333 547.261 454.15 583.649 454.15V414.15ZM501.449 346.3V195.45H461.449V346.3H501.449ZM481.449 215.45H547.599V175.45H481.449V215.45ZM527.599 195.45V343.85H567.599V195.45H527.599ZM527.599 343.85C527.599 360.997 530.985 377.658 542.265 389.878C553.894 402.476 569.992 406.2 585.749 406.2V366.2C575.606 366.2 572.629 363.799 571.657 362.747C570.338 361.317 567.599 356.803 567.599 343.85H527.599ZM585.749 406.2C601.499 406.2 617.603 402.467 628.953 389.364C639.675 376.987 642.499 360.282 642.499 343.5H602.499C602.499 357.168 599.898 361.813 598.719 363.174C598.17 363.808 595.899 366.2 585.749 366.2V406.2ZM642.499 343.5V195.45H602.499V343.5H642.499ZM622.499 215.45H681.299V175.45H622.499V215.45ZM661.299 195.45V345.95H701.299V195.45H661.299ZM661.299 345.95C661.299 371.806 654.549 387.565 644.015 397.237C633.14 407.224 614.544 414.15 583.649 414.15V454.15C619.604 454.15 649.833 446.201 671.07 426.7C692.649 406.885 701.299 378.544 701.299 345.95H661.299ZM746.907 430.3H726.907C726.907 441.346 735.862 450.3 746.907 450.3V430.3ZM746.907 195.1V175.1C735.862 175.1 726.907 184.054 726.907 195.1H746.907ZM813.057 195.1H833.057C833.057 184.054 824.103 175.1 813.057 175.1V195.1ZM813.057 430.3V450.3C824.103 450.3 833.057 441.346 833.057 430.3H813.057ZM766.907 430.3V195.1H726.907V430.3H766.907ZM746.907 215.1H813.057V175.1H746.907V215.1ZM793.057 195.1V430.3H833.057V195.1H793.057ZM813.057 410.3H746.907V450.3H813.057V410.3ZM870.892 430.3H850.892C850.892 441.346 859.846 450.3 870.892 450.3V430.3ZM870.892 385.15L854.65 373.48C852.207 376.88 850.892 380.962 850.892 385.15H870.892ZM972.742 243.4L988.984 255.07C991.428 251.669 992.742 247.588 992.742 243.4H972.742ZM972.742 242.35H992.742C992.742 231.304 983.788 222.35 972.742 222.35V242.35ZM876.842 242.35H856.842C856.842 253.396 865.797 262.35 876.842 262.35V242.35ZM876.842 195.1V175.1C865.797 175.1 856.842 184.054 856.842 195.1H876.842ZM1047.99 195.1H1067.99C1067.99 184.054 1059.04 175.1 1047.99 175.1V195.1ZM1047.99 239.9L1064.23 251.578C1066.68 248.176 1067.99 244.091 1067.99 239.9H1047.99ZM945.792 382L929.555 370.322C927.109 373.724 925.792 377.809 925.792 382H945.792ZM945.792 383.05H925.792C925.792 394.096 934.747 403.05 945.792 403.05V383.05ZM1047.64 383.05H1067.64C1067.64 372.004 1058.69 363.05 1047.64 363.05V383.05ZM1047.64 430.3V450.3C1058.69 450.3 1067.64 441.346 1067.64 430.3H1047.64ZM890.892 430.3V385.15H850.892V430.3H890.892ZM887.134 396.82L988.984 255.07L956.5 231.73L854.65 373.48L887.134 396.82ZM992.742 243.4V242.35H952.742V243.4H992.742ZM972.742 222.35H876.842V262.35H972.742V222.35ZM896.842 242.35V195.1H856.842V242.35H896.842ZM876.842 215.1H1047.99V175.1H876.842V215.1ZM1027.99 195.1V239.9H1067.99V195.1H1027.99ZM1031.76 228.222L929.555 370.322L962.029 393.678L1064.23 251.578L1031.76 228.222ZM925.792 382V383.05H965.792V382H925.792ZM945.792 403.05H1047.64V363.05H945.792V403.05ZM1027.64 383.05V430.3H1067.64V383.05H1027.64ZM1047.64 410.3H870.892V450.3H1047.64V410.3Z" fill="white"/>
</g>
<defs>
<filter id="filter0_d_396_2903" x="0.6875" y="0.25" width="1097.3" height="536.699" filterUnits="userSpaceOnUse" color-interpolation-filters="sRGB">
<feFlood flood-opacity="0" result="BackgroundImageFix"/>
<feColorMatrix in="SourceAlpha" type="matrix" values="0 0 0 0 0 0 0 0 0 0 0 0 0 0 0 0 0 0 127 0" result="hardAlpha"/>
<feOffset dy="4"/>
<feGaussianBlur stdDeviation="25"/>
<feComposite in2="hardAlpha" operator="out"/>
<feColorMatrix type="matrix" values="0 0 0 0 0 0 0 0 0 0 0 0 0 0 0 0 0 0 0.3 0"/>
<feBlend mode="normal" in2="BackgroundImageFix" result="effect1_dropShadow_396_2903"/>
<feBlend mode="normal" in="SourceGraphic" in2="effect1_dropShadow_396_2903" result="shape"/>
</filter>
</defs>
</svg>
