<svg width="200" height="100" viewBox="0 0 2433 687" fill="none" xmlns="http://www.w3.org/2000/svg">
<g filter="url(#filter0_d_396_3035)">
<path d="M256.307 582.3C190.507 582.3 135.207 572.5 101.607 554.3V458.4C143.607 473.8 186.307 485 240.907 485C293.407 485 313.707 468.9 313.707 440.9C313.707 413.6 301.807 405.2 256.307 396.1L221.307 389.1C146.407 375.1 100.907 342.2 100.907 243.5C100.907 154.6 156.207 96.5 275.207 96.5C350.107 96.5 386.507 107.7 414.507 121V215.5C381.607 204.3 341.007 193.1 287.807 193.1C245.107 193.1 223.407 206.4 223.407 233.7C223.407 258.2 237.407 268 278.707 276.4L313.707 282.7C397.007 298.8 442.507 331.7 442.507 426.9C442.507 527.7 378.107 582.3 256.307 582.3ZM648.789 574.6V198.7H524.889V104.2H904.289V198.7H781.089V574.6H648.789ZM1145.46 240.7L1095.76 396.8H1197.96L1148.26 240.7H1145.46ZM922.161 574.6L1086.66 104.2H1227.36L1390.46 574.6H1256.06L1224.56 481.5H1070.56L1041.16 574.6H922.161ZM1616.78 324H1666.48C1713.38 324 1731.58 301.6 1731.58 257.5C1731.58 213.4 1712.68 193.8 1664.38 193.8H1616.78V324ZM1486.58 574.6V104.2H1683.98C1802.98 104.2 1862.48 149.7 1862.48 251.2C1862.48 315.6 1833.78 348.5 1784.78 369.5V372.3L1889.78 574.6H1752.58L1667.18 403.1H1618.18V574.6H1486.58ZM2077.03 574.6V198.7H1953.13V104.2H2332.53V198.7H2209.33V574.6H2077.03Z" fill="#78F7E7" fill-opacity="0.7" shape-rendering="crispEdges"/>
<path d="M101.607 554.3H81.6074C81.6074 561.64 85.6279 568.39 92.0818 571.886L101.607 554.3ZM101.607 458.4L108.493 439.622C102.358 437.373 95.5119 438.262 90.1554 442.003C84.7988 445.745 81.6074 451.866 81.6074 458.4H101.607ZM256.307 396.1L260.23 376.488L256.307 396.1ZM221.307 389.1L225.23 369.488C225.147 369.472 225.065 369.456 224.982 369.44L221.307 389.1ZM414.507 121H434.507C434.507 113.279 430.063 106.247 423.089 102.934L414.507 121ZM414.507 215.5L408.062 234.433C414.169 236.512 420.904 235.517 426.15 231.762C431.396 228.007 434.507 221.951 434.507 215.5H414.507ZM278.707 276.4L274.721 295.999C274.869 296.029 275.016 296.057 275.164 296.084L278.707 276.4ZM313.707 282.7L317.503 263.063C317.419 263.047 317.335 263.031 317.251 263.016L313.707 282.7ZM256.307 562.3C191.64 562.3 140.348 552.539 111.133 536.714L92.0818 571.886C130.067 592.461 189.375 602.3 256.307 602.3V562.3ZM121.607 554.3V458.4H81.6074V554.3H121.607ZM94.7223 477.178C138.128 493.093 183.236 505 240.907 505V465C189.379 465 149.086 454.507 108.493 439.622L94.7223 477.178ZM240.907 505C268.476 505 291.363 500.909 307.855 490.245C326.049 478.48 333.707 460.598 333.707 440.9H293.707C293.707 449.202 291.216 453.37 286.135 456.655C279.352 461.042 265.839 465 240.907 465V505ZM333.707 440.9C333.707 424.029 329.811 407.758 314.249 395.811C301.388 385.938 282.509 380.944 260.23 376.488L252.385 415.712C275.606 420.356 285.427 424.112 289.891 427.539C291.654 428.892 293.707 430.471 293.707 440.9H333.707ZM260.23 376.488L225.23 369.488L217.385 408.712L252.385 415.712L260.23 376.488ZM224.982 369.44C189.128 362.739 164.089 352.114 147.67 334.447C131.582 317.137 120.907 289.915 120.907 243.5H80.9074C80.9074 295.785 92.9829 334.363 118.37 361.678C143.426 388.636 178.587 401.461 217.633 408.76L224.982 369.44ZM120.907 243.5C120.907 203.305 133.272 172.557 156.756 151.578C180.575 130.301 218.703 116.5 275.207 116.5V76.5C212.712 76.5 163.69 91.7489 130.108 121.747C96.1933 152.043 80.9074 194.795 80.9074 243.5H120.907ZM275.207 116.5C347.748 116.5 381.108 127.277 405.926 139.066L423.089 102.934C391.907 88.1231 352.467 76.5 275.207 76.5V116.5ZM394.507 121V215.5H434.507V121H394.507ZM420.953 196.567C386.941 184.988 344.027 173.1 287.807 173.1V213.1C337.988 213.1 376.274 223.612 408.062 234.433L420.953 196.567ZM287.807 173.1C265.035 173.1 244.449 176.528 228.983 186.21C211.936 196.882 203.407 213.7 203.407 233.7H243.407C243.407 226.4 245.729 222.918 250.207 220.115C256.266 216.322 267.88 213.1 287.807 213.1V173.1ZM203.407 233.7C203.407 241.67 204.538 249.784 207.904 257.512C211.359 265.446 216.694 271.879 223.493 277.029C236.103 286.582 253.982 291.78 274.721 295.999L282.694 256.801C262.133 252.619 252.362 248.718 247.647 245.146C245.784 243.734 245.037 242.598 244.577 241.541C244.027 240.279 243.407 237.98 243.407 233.7H203.407ZM275.164 296.084L310.164 302.384L317.251 263.016L282.25 256.716L275.164 296.084ZM309.912 302.337C350.337 310.15 377.618 321.413 395.091 339.166C411.948 356.294 422.507 382.45 422.507 426.9H462.507C462.507 376.15 450.317 338.256 423.599 311.108C397.497 284.587 360.378 271.35 317.503 263.063L309.912 302.337ZM422.507 426.9C422.507 472.811 408.036 505.451 382.237 527.071C355.842 549.189 314.6 562.3 256.307 562.3V602.3C319.815 602.3 371.673 588.111 407.928 557.729C444.778 526.849 462.507 481.789 462.507 426.9H422.507ZM648.789 574.6H628.789C628.789 585.646 637.743 594.6 648.789 594.6V574.6ZM648.789 198.7H668.789C668.789 187.654 659.834 178.7 648.789 178.7V198.7ZM524.889 198.7H504.889C504.889 209.746 513.843 218.7 524.889 218.7V198.7ZM524.889 104.2V84.2C513.843 84.2 504.889 93.1543 504.889 104.2H524.889ZM904.289 104.2H924.289C924.289 93.1543 915.334 84.2 904.289 84.2V104.2ZM904.289 198.7V218.7C915.334 218.7 924.289 209.746 924.289 198.7H904.289ZM781.089 198.7V178.7C770.043 178.7 761.089 187.654 761.089 198.7H781.089ZM781.089 574.6V594.6C792.134 594.6 801.089 585.646 801.089 574.6H781.089ZM668.789 574.6V198.7H628.789V574.6H668.789ZM648.789 178.7H524.889V218.7H648.789V178.7ZM544.889 198.7V104.2H504.889V198.7H544.889ZM524.889 124.2H904.289V84.2H524.889V124.2ZM884.289 104.2V198.7H924.289V104.2H884.289ZM904.289 178.7H781.089V218.7H904.289V178.7ZM761.089 198.7V574.6H801.089V198.7H761.089ZM781.089 554.6H648.789V594.6H781.089V554.6ZM1145.46 240.7V220.7C1136.75 220.7 1129.05 226.335 1126.4 234.632L1145.46 240.7ZM1095.76 396.8L1076.7 390.732C1074.77 396.813 1075.85 403.452 1079.62 408.604C1083.38 413.755 1089.38 416.8 1095.76 416.8V396.8ZM1197.96 396.8V416.8C1204.34 416.8 1210.34 413.755 1214.11 408.604C1217.87 403.452 1218.95 396.813 1217.02 390.732L1197.96 396.8ZM1148.26 240.7L1167.32 234.632C1164.68 226.335 1156.97 220.7 1148.26 220.7V240.7ZM922.161 574.6L903.282 567.998C901.142 574.115 902.1 580.89 905.85 586.175C909.601 591.46 915.68 594.6 922.161 594.6V574.6ZM1086.66 104.2V84.2C1078.16 84.2 1070.59 89.5736 1067.78 97.598L1086.66 104.2ZM1227.36 104.2L1246.26 97.6481C1243.47 89.5979 1235.88 84.2 1227.36 84.2V104.2ZM1390.46 574.6V594.6C1396.93 594.6 1403 591.469 1406.76 586.197C1410.51 580.924 1411.48 574.162 1409.36 568.048L1390.46 574.6ZM1256.06 574.6L1237.12 581.01C1239.86 589.133 1247.49 594.6 1256.06 594.6V574.6ZM1224.56 481.5L1243.51 475.09C1240.76 466.967 1233.14 461.5 1224.56 461.5V481.5ZM1070.56 481.5V461.5C1061.83 461.5 1054.12 467.157 1051.49 475.477L1070.56 481.5ZM1041.16 574.6V594.6C1049.89 594.6 1057.6 588.943 1060.23 580.623L1041.16 574.6ZM1126.4 234.632L1076.7 390.732L1114.82 402.868L1164.52 246.768L1126.4 234.632ZM1095.76 416.8H1197.96V376.8H1095.76V416.8ZM1217.02 390.732L1167.32 234.632L1129.2 246.768L1178.9 402.868L1217.02 390.732ZM1148.26 220.7H1145.46V260.7H1148.26V220.7ZM941.039 581.202L1105.54 110.802L1067.78 97.598L903.282 567.998L941.039 581.202ZM1086.66 124.2H1227.36V84.2H1086.66V124.2ZM1208.46 110.752L1371.56 581.152L1409.36 568.048L1246.26 97.6481L1208.46 110.752ZM1390.46 554.6H1256.06V594.6H1390.46V554.6ZM1275.01 568.19L1243.51 475.09L1205.62 487.91L1237.12 581.01L1275.01 568.19ZM1224.56 461.5H1070.56V501.5H1224.56V461.5ZM1051.49 475.477L1022.09 568.577L1060.23 580.623L1089.63 487.523L1051.49 475.477ZM1041.16 554.6H922.161V594.6H1041.16V554.6ZM1616.78 324H1596.78C1596.78 335.046 1605.73 344 1616.78 344V324ZM1616.78 193.8V173.8C1605.73 173.8 1596.78 182.754 1596.78 193.8H1616.78ZM1486.58 574.6H1466.58C1466.58 585.646 1475.53 594.6 1486.58 594.6V574.6ZM1486.58 104.2V84.2C1475.53 84.2 1466.58 93.1543 1466.58 104.2H1486.58ZM1784.78 369.5L1776.9 351.117C1769.55 354.269 1764.78 361.499 1764.78 369.5H1784.78ZM1784.78 372.3H1764.78C1764.78 375.507 1765.55 378.667 1767.03 381.513L1784.78 372.3ZM1889.78 574.6V594.6C1896.76 594.6 1903.24 590.955 1906.87 584.986C1910.5 579.016 1910.75 571.586 1907.53 565.386L1889.78 574.6ZM1752.58 574.6L1734.68 583.515C1738.06 590.307 1744.99 594.6 1752.58 594.6V574.6ZM1667.18 403.1L1685.08 394.185C1681.7 387.393 1674.77 383.1 1667.18 383.1V403.1ZM1618.18 403.1V383.1C1607.13 383.1 1598.18 392.054 1598.18 403.1H1618.18ZM1618.18 574.6V594.6C1629.22 594.6 1638.18 585.646 1638.18 574.6H1618.18ZM1616.78 344H1666.48V304H1616.78V344ZM1666.48 344C1692.76 344 1715.5 337.731 1731.21 320.962C1746.67 304.466 1751.58 281.735 1751.58 257.5H1711.58C1711.58 277.365 1707.39 287.884 1702.02 293.612C1696.91 299.069 1687.1 304 1666.48 304V344ZM1751.58 257.5C1751.58 233.138 1746.43 210.638 1730 194.739C1713.74 179.004 1690.58 173.8 1664.38 173.8V213.8C1686.48 213.8 1696.92 218.396 1702.19 223.486C1707.28 228.412 1711.58 237.762 1711.58 257.5H1751.58ZM1664.38 173.8H1616.78V213.8H1664.38V173.8ZM1596.78 193.8V324H1636.78V193.8H1596.78ZM1506.58 574.6V104.2H1466.58V574.6H1506.58ZM1486.58 124.2H1683.98V84.2H1486.58V124.2ZM1683.98 124.2C1741.54 124.2 1780.71 135.314 1805.28 155.188C1828.96 174.347 1842.48 204.477 1842.48 251.2H1882.48C1882.48 196.423 1866.24 153.053 1830.43 124.087C1795.5 95.8363 1745.42 84.2 1683.98 84.2V124.2ZM1842.48 251.2C1842.48 280.35 1836.03 300.365 1825.65 315.115C1815.17 330 1799.3 341.518 1776.9 351.117L1792.66 387.883C1819.26 376.482 1842.23 361.05 1858.36 338.135C1874.58 315.085 1882.48 286.45 1882.48 251.2H1842.48ZM1764.78 369.5V372.3H1804.78V369.5H1764.78ZM1767.03 381.513L1872.03 583.814L1907.53 565.386L1802.53 363.086L1767.03 381.513ZM1889.78 554.6H1752.58V594.6H1889.78V554.6ZM1770.48 565.685L1685.08 394.185L1649.28 412.015L1734.68 583.515L1770.48 565.685ZM1667.18 383.1H1618.18V423.1H1667.18V383.1ZM1598.18 403.1V574.6H1638.18V403.1H1598.18ZM1618.18 554.6H1486.58V594.6H1618.18V554.6ZM2077.03 574.6H2057.03C2057.03 585.646 2065.99 594.6 2077.03 594.6V574.6ZM2077.03 198.7H2097.03C2097.03 187.654 2088.08 178.7 2077.03 178.7V198.7ZM1953.13 198.7H1933.13C1933.13 209.746 1942.09 218.7 1953.13 218.7V198.7ZM1953.13 104.2V84.2C1942.09 84.2 1933.13 93.1543 1933.13 104.2H1953.13ZM2332.53 104.2H2352.53C2352.53 93.1543 2343.58 84.2 2332.53 84.2V104.2ZM2332.53 198.7V218.7C2343.58 218.7 2352.53 209.746 2352.53 198.7H2332.53ZM2209.33 198.7V178.7C2198.29 178.7 2189.33 187.654 2189.33 198.7H2209.33ZM2209.33 574.6V594.6C2220.38 594.6 2229.33 585.646 2229.33 574.6H2209.33ZM2097.03 574.6V198.7H2057.03V574.6H2097.03ZM2077.03 178.7H1953.13V218.7H2077.03V178.7ZM1973.13 198.7V104.2H1933.13V198.7H1973.13ZM1953.13 124.2H2332.53V84.2H1953.13V124.2ZM2312.53 104.2V198.7H2352.53V104.2H2312.53ZM2332.53 178.7H2209.33V218.7H2332.53V178.7ZM2189.33 198.7V574.6H2229.33V198.7H2189.33ZM2209.33 554.6H2077.03V594.6H2209.33V554.6Z" fill="white"/>
</g>
<defs>
<filter id="filter0_d_396_3035" x="0.90625" y="0.5" width="2431.62" height="685.801" filterUnits="userSpaceOnUse" color-interpolation-filters="sRGB">
<feFlood flood-opacity="0" result="BackgroundImageFix"/>
<feColorMatrix in="SourceAlpha" type="matrix" values="0 0 0 0 0 0 0 0 0 0 0 0 0 0 0 0 0 0 127 0" result="hardAlpha"/>
<feOffset dy="4"/>
<feGaussianBlur stdDeviation="50"/>
<feComposite in2="hardAlpha" operator="out"/>
<feColorMatrix type="matrix" values="0 0 0 0 0 0 0 0 0 0 0 0 0 0 0 0 0 0 0.5 0"/>
<feBlend mode="normal" in2="BackgroundImageFix" result="effect1_dropShadow_396_3035"/>
<feBlend mode="normal" in="SourceGraphic" in2="effect1_dropShadow_396_3035" result="shape"/>
</filter>
</defs>
</svg>
